<svg xmlns="http://www.w3.org/2000/svg" width="48" height="16" viewBox="0 0 48 16">
  <path fill="#1434CB" d="M19.128 15.52h-3.64L18.064.48h3.64l-2.576 15.04zm-6.832-9.952c-1.232-.608-3.152-1.28-5.552-1.28-6.128 0-10.432 3.2-10.464 7.776-.064 3.392 3.072 5.28 5.424 6.4 2.4 1.152 3.2 1.888 3.2 2.912-.032 1.568-1.92 2.304-3.68 2.304-2.464 0-3.776-.352-5.808-1.248l-.8-.352-.864 5.248c1.44.64 4.096 1.216 6.848 1.248 6.464 0 10.656-3.168 10.72-8.064.032-2.688-1.632-4.736-5.216-6.4-2.176-1.088-3.52-1.792-3.52-2.88.032-1.024 1.152-2.08 3.648-2.08 2.08-.064 3.584.448 4.768.928l.576.256.832-4.768zm13.76 9.92c.512-1.344 2.464-6.56 2.464-6.56-.032.064.512-1.376.832-2.24l.416 2.016s1.184 5.632 1.44 6.784h-5.152zm7.68-9.92h-2.816c-.864 0-1.536.256-1.92 1.152L21.28 15.52h6.4l1.088-3.008h6.656c.16.704.64 3.008.64 3.008h5.632L37.736 5.568zm-33.28 0L.224 12.64l-.16-.8c-1.28-3.392-5.28-7.072-9.76-8.896l4.512 12.544h6.432L10.456 5.568z"/>
</svg> 